<?xml version="1.0" encoding="utf-8"?>
<!-- Generator: Adobe Illustrator 27.2.0, SVG Export Plug-In . SVG Version: 6.00 Build 0)  -->
<svg version="1.1" id="Layer_1" xmlns="http://www.w3.org/2000/svg" xmlns:xlink="http://www.w3.org/1999/xlink" x="0px" y="0px"
	 viewBox="0 0 2013 1177.1" style="enable-background:new 0 0 2013 1177.1;" xml:space="preserve">
<style type="text/css">
	.st0{fill:#3FBBFF;}
	.st1{fill:none;stroke:#000000;stroke-width:4;stroke-miterlimit:10;}
	.st2{fill:#006837;}
	.st3{fill:#754C24;}
	.st4{fill:#39B54A;}
	.st5{fill:url(#SVGID_1_);}
	.st6{fill:#009245;}
	.st7{fill:#F9E9DC;stroke:#000000;stroke-width:4;stroke-miterlimit:10;}
	.st8{font-family:'ArialMT';}
	.st9{font-size:89.78px;}
	.st10{fill:#754C24;stroke:#000000;stroke-width:4;stroke-miterlimit:10;}
	.st11{fill:none;stroke:#000000;stroke-width:5;stroke-miterlimit:10;}
	.st12{fill:#FFFF00;}
</style>
<g id="Layer_3">
	<polygon class="st0" points="-2.1,0 2011,1 2018.1,1168 5,1167 	"/>
	<path class="st1" d="M1558,557"/>
	<path class="st1" d="M1558,499.8"/>
	<path class="st1" d="M1786,517"/>
	<path class="st1" d="M1786,459.8"/>
	<path class="st2" d="M1143.1,950.2c126.4-129.2,139.9-143.1,232-201c78-49,400.7-45.5,455-39c78.1-3.7,164.3,32.6,188,56v415
		c-9,3-1026.2,4.9-1032,0C958.9,1158.4,1143.1,950.2,1143.1,950.2z"/>
	<polygon class="st3" points="1408.3,774.3 1394.4,720.8 1385.1,666.6 1384.5,596.9 1351.7,597.8 1351.8,664.6 1355.4,721.7 
		1355.3,782.4 	"/>
	<polygon class="st4" points="1377.4,703.2 1301.9,719.3 1337.2,671.7 1300.5,669.4 1343.4,613.9 1313.7,609.8 1380,514.6 
		1432.6,593.6 1393.7,610.6 1444.3,647 1411.2,661.4 1444.1,699.4 	"/>
</g>
<g id="Layer_5">
	
		<linearGradient id="SVGID_1_" gradientUnits="userSpaceOnUse" x1="187.61" y1="786.079" x2="2059.6968" y2="786.079" gradientTransform="matrix(0.9948 -0.1018 -0.1018 -0.9948 72.6094 1477.3319)">
		<stop  offset="0" style="stop-color:#E0FF2A;stop-opacity:0.2"/>
		<stop  offset="1" style="stop-color:#E0FF2A;stop-opacity:0.5"/>
	</linearGradient>
	<polyline class="st5" points="1786.7,9.3 187.7,759.1 1234.6,1078.3 2011,186.9 1803.2,0 	"/>
</g>
<g id="Layer_4">
	<path class="st6" d="M274.1,916.1c96-97,331-138,433-144s350.1-1.2,468,37c142,46,255.6,133.7,331,223c65,77,81,145,81,145h-1365
		L274.1,916.1z"/>
</g>
<g id="Layer_1_00000109711288339117248830000012515664225815867057_">
	<polygon class="st3" points="550.7,822 566.7,780.2 558.7,714.5 550.7,649 588.9,643.9 599,710 604,767 616.7,822 	"/>
	<polygon class="st4" points="590,750 518.5,779 545,726 498,717.5 541,668 503,670 546.2,557.3 634,642 590,656 646.1,683.1 
		616,703 655,734.7 	"/>
</g>
<g id="Layer_7">
	<line class="st1" x1="492.6" y1="453.8" x2="492.6" y2="517"/>
	<line class="st1" x1="605.2" y1="466.6" x2="605.2" y2="533"/>
</g>
<g id="Layer_6">
	<polygon class="st7" points="455.6,517 455.6,627.6 529.6,628 529.6,517 	"/>
	<polygon class="st7" points="568.2,528.5 568.2,639.1 642.2,639.5 642.2,528.5 	"/>
	<polygon class="st7" points="684,541.4 684,652 758,652.4 758,541.4 	"/>
	<polygon class="st7" points="798.2,557 798.2,667.6 872.2,668 872.2,557 	"/>
	<polygon class="st7" points="922.4,586.4 922.4,697 996.4,697.4 996.4,586.4 	"/>
	<polygon class="st7" points="1343,613.2 1343,723.8 1417,724.2 1417,613.2 	"/>
	<polygon class="st7" points="1473.8,586.4 1473.8,697 1547.8,697.4 1547.8,586.4 	"/>
	<polygon class="st7" points="1599.4,557.7 1599.4,668.3 1673.4,668.7 1673.4,557.7 	"/>
	<polygon class="st7" points="1727.7,522.1 1727.7,632.7 1801.7,633.1 1801.7,522.1 	"/>
	<polygon class="st7" points="1857.4,504.5 1857.4,615.1 1931.4,615.5 1931.4,504.5 	"/>
	<path class="st1" d="M436,477.6"/>
	<line class="st1" x1="835.2" y1="482.1" x2="835.2" y2="557"/>
	<line class="st1" x1="959.4" y1="491" x2="959.4" y2="586.4"/>
	<line class="st1" x1="1510.8" y1="499.8" x2="1510.8" y2="586.4"/>
	<line class="st1" x1="1764.7" y1="462.5" x2="1764.7" y2="522.1"/>
</g>
<g id="Layer_8">
	<text transform="matrix(0.85 0 0 1 465.1401 605.46)" class="st8 st9">S</text>
	<text transform="matrix(0.83 0 0 1 593.9072 617.3496)" class="st8 st9">I</text>
	<text transform="matrix(0.85 0 0 1 689.105 625.3691)" class="st8 st9">M</text>
	<text transform="matrix(0.85 0 0 1 810.1006 641.9102)" class="st8 st9">P</text>
	<text transform="matrix(0.85 0 0 1 939.1392 668.6992)" class="st8 st9">L</text>
	<text transform="matrix(0.85 0 0 1 1351.6992 699.5332)" class="st8 st9">S</text>
	<text transform="matrix(0.85 0 0 1 1481.9678 678)" class="st8 st9">P</text>
	<text transform="matrix(0.85 0 0 1 1610.5586 644)" class="st8 st9">E</text>
	<text transform="matrix(0.85 0 0 1 1746.9922 605.46)" class="st8 st9">L</text>
	<text transform="matrix(0.85 0 0 1 1875.7764 589.6006)" class="st8 st9">L</text>
	<polygon class="st7" points="1048,604.4 1048,715.1 1122,715.4 1122,604.4 	"/>
	<line class="st1" x1="1085" y1="496.8" x2="1085" y2="605.3"/>
	<text transform="matrix(0.85 0 0 1 1062.1816 689.6504)" class="st8 st9">E</text>
	<line class="st1" x1="1380" y1="507.2" x2="1380" y2="612.5"/>
	<line class="st1" x1="721" y1="477.6" x2="721" y2="540.5"/>
	<path class="st1" d="M295.9,418.8c0,0,63,18,209,35s57,11,315,28s419.8,29.3,577,25c146-4,254.2-16.6,370.6-43.8
		s229.5-70.8,245.5-74.5"/>
	<polygon class="st10" points="524,0.1 426.8,245.1 401.6,413.1 420.5,571.1 462.8,896.1 536.2,1177.1 -4,1177.1 -4,0.1 302.1,0.1 
		327.4,0.1 375.4,0.1 	"/>
	<path class="st10" d="M644,296"/>
	<path class="st10" d="M758,206"/>
	<path class="st10" d="M19,0.1c4,42.8,6.4,259.1,14,341.9c18,196-11.4,313-6,532c1.6,65.8,6.1,178.6,20,303.1"/>
	<path class="st10" d="M47,0.1c0,0,78,319.9,74,410.9c-3.9,88.7-64,181-40,400s40.9,139.1,40.1,366.1"/>
	<path class="st10" d="M105,0.1c0,0,67.9,198.7,67,273.9c-1,86,18.5,227.5-36.8,377.5C118.4,697,121,923,160,1073
		c7.9,30.4,20.5,77.2,27.7,104.1"/>
	<path class="st10" d="M201.2,0.1c0,0,67.8,266.2,64.8,329.5S173,658.8,208,725s46.4,404.9,38.4,450.9"/>
	<path class="st10" d="M166.8,90c0,0,21.1,34.2,26.2,68c5.9,38.9,44.2,85.7,40,114.8c-5,35.2-10,199.7-25,245.2s-31-131-24-169
		s28.4-113,1.7-143S142,96,142,96l25-6"/>
	<path class="st10" d="M266.1,0.1c0,0,41.9,175.9,46.9,214.9s44.3,222,16.6,273S240.1,701.4,274,758.7S352,967,352,1009v168.1"/>
	<path class="st10" d="M327.4,0.1c0,0,34.3,198.2,36.3,271.2S367,427,369,545s-24,146.4-17,193.7S419,978,413,1001
		s0.4,174.9,0.4,174.9"/>
	<path class="st10" d="M352,0.1c0,0,14.6,121.9,16.6,137.9s24.8,55.2,21.4,88.1S365.8,347,374.2,360s28-52.3,28-52.3
		c6-25,80.3-232.1,59.5-267.4c-6.5-11.1-29.5-18.4-29.5-18.4S394.7,91.1,390,115c-4.5,23.1,8.5,79.1,8.6,80c0,0,0,20.4-0.6,31.2
		c-0.5,10.2,13,8.4,13,8.4s15.9-29.5,10.7-53.7c-7.1-33.2-12.6-36.2-2.2-55.9c11.7-22.2,14.7-39.9,14.7-39.9s2.8-17.1-4.6-26.8"/>
	<path class="st10" d="M141.5,741.2c0,0-6.5,111.2,0,125S153,1035,158,1018s61,141.9,50-6.5s9.3-214-20.3-252.8
		S141.5,741.2,141.5,741.2z"/>
	<path class="st10" d="M150,765c0,0-4,71.2,0,72s1.5,99.5,10,99s8,101.6,18,86.8s9.7-44.2,9.7-44.2s-7.9-54.3,0-84
		C197,859.5,159.4,761.2,150,765z"/>
	<line class="st1" x1="1636.4" y1="489.6" x2="1636.4" y2="557.8"/>
</g>
<line class="st1" x1="1894.4" y1="427.2" x2="1894.4" y2="506.7"/>
<path class="st11" d="M1068.8,229.2c23.1,3.7,41.7,28.1,41.7,28.1s4.8-2.5,26.9-14.1c22.2-11.6,37.7-9.1,37.7-9.1"/>
<path class="st11" d="M954.8,243.2c23.1,3.7,41.7,28.1,41.7,28.1s4.8-2.5,26.9-14.1c22.2-11.6,37.7-9.1,37.7-9.1"/>
<path class="st11" d="M1008,180.9c23.1,3.7,41.7,28.1,41.7,28.1s4.8-2.5,26.9-14.1c22.2-11.6,37.7-9.1,37.7-9.1"/>
<path class="st12" d="M2011,1l-207.8-1c-32.7-3.2-33.5,81.7-22.5,106.7c15,34.3,61.6,79.1,112.1,88.3c42.4,7.7,123.8-7.6,118.2-8"/>
</svg>
